<?xml version="1.0" encoding="UTF-8"?>
<svg id="Layer_1" data-name="Layer 1" xmlns="http://www.w3.org/2000/svg" viewBox="0 0 872.05 257.46">
  <defs>
    <style>
      .cls-1 {
        fill: #fff;
      }

      .cls-2 {
        fill: #d91d26;
      }
    </style>
  </defs>
  <path class="cls-2" d="M.16.15c.96-.08,1.93-.13,2.89-.15,289.66.1,579.31-.06,868.96.08.09,85.74.02,171.58.04,257.32-164.08.14-328.84,0-493,.04-126.33-.05-252.67.13-379-.13V12.03C.09,8.08-.14,4.09.16.15H.16Z"/>
  <path class="cls-1" d="M158.53,43.57c4.9-1.17,11.65-1.18,15.72,2.24,5.37,4.57,6.02,12.75,1.99,18.41-5.45,7.55-16.41,8.77-23.86,3.49-4.44-3.38-5.02-9.16-3.89-14.26,1.41-4.79,5.39-8.31,10.04-9.88h0Z"/>
  <path class="cls-1" d="M431.33,64.24c7.93-.41,15.96-.19,23.9-.08-1.1,9.64-3.31,19.16-4.46,28.8,4.44-.12,8.88-.2,13.32-.05-.67,5.88-1.54,11.73-2.58,17.56-4.42.29-8.87-.11-13.27.24-1.36.91-1.04,3.74-1.45,5.23-3.04,19.62-6.5,39.16-9.18,58.84-8.12.59-16.34.28-24.48.16,2.79-15.95,5.35-31.94,7.96-47.92.82-5.56,1.95-11.06,2.46-16.67-4.16.25-8.31.35-12.47.28.33-5.82,1.63-11.82,2.36-17.59,4.44-.46,8.81-.07,13.26-.26.67-6.45,1.91-12.81,2.83-19.23.54-3.21.74-6.22,1.8-9.31h0Z"/>
  <path class="cls-1" d="M78.18,91.25c7.15-.57,14.79-.97,21.38,2.29,4.57,2.04,7.34,5.92,10.36,9.71.51-3.3,1.1-6.59,1.57-9.9,7.05-1.16,14.5-.58,21.63-.4-1.19,11.4-3.63,22.7-5.18,34.06-2.25,15.94-5.23,31.78-7.34,47.74-7.46.67-15.08.47-22.55.28-.01-3.17.34-6.22.89-9.34-2.47,3.04-4.78,5.99-8.22,8.02-7.29,4.99-15.92,5.39-24.39,3.98-6.4-1.19-12.17-4.62-16.1-9.82-6.72-8.3-7.91-19.55-7.4-29.85.26-10.34,3.51-20.48,9.03-29.2,5.97-9.15,15.56-15.63,26.32-17.57h0Z"/>
  <path class="cls-1" d="M210.03,90.98c8.57-.27,17.33,1.01,23.74,7.21-2.76,4.77-5.99,9.16-9.05,13.74-3.04-1.47-6.37-3.39-9.73-3.89-3.55-.24-7.22-.53-10.25,1.66-1.35,1.07-2.85,2.51-2.77,4.38-.31,3.19,2.76,5.36,5.11,6.92,7.61,4.8,15.33,7.53,21.08,14.91,4.21,5.62,4.37,12.15,3.56,18.85-1.16,7.29-6.21,13.69-12.23,17.71-9.63,5.92-20.41,6.43-31.4,5.45-7.6-.84-14.74-3.67-20.38-8.91,2.99-5.35,6.74-10.34,10.56-15.12,3.71,2.31,6.66,4.9,11.07,5.87,4.14.85,9.18,1.45,13.17-.25,3.04-1.36,6.05-4.78,5.52-8.31-.73-3.89-4.36-5.79-7.39-7.76-6.62-3.92-15.04-8.04-19.14-14.84-3.21-4.82-2.79-10.89-2.21-16.37,1.26-5.4,4.17-10.92,8.68-14.28,6.33-4.74,14.14-7.29,22.06-6.97h0Z"/>
  <path class="cls-1" d="M282.02,91.01c5.65-.03,11.02-.31,16.45,1.6,9.27,2.75,16.87,10.34,19.22,19.77,2.1,7.96,2.14,17.26.04,25.22-.29,1.73-2.39,1.25-3.65,1.41-17.41.03-34.83-.02-52.24,0-.21,6.44.03,12.57,4.77,17.46,6.71,6.43,17.77,5.87,24.21-.65,1.59-1.3,3.03-3.99,5.27-3.77,7.05-.08,14.15-.07,21.2.11-3.92,10.62-12.73,19.92-23.55,23.55-9.44,3.37-20.18,3.4-29.94,1.54-10.08-1.93-18.48-9.11-22.47-18.48-3.32-8.49-4.15-17.85-2.29-26.78,2.18-14.15,9.6-27.37,21.91-35.05,6.29-3.72,13.73-6.03,21.07-5.93h0Z"/>
  <path class="cls-1" d="M367,91.06c6.04.03,12.29-.49,18.01,1.04,7.25,1.74,14.57,5.91,18.74,12.22,5.71,8.11,7.13,19.19,5.47,28.79-1.7,16.61-11.06,33.25-26.52,40.56-9.33,4.49-19.41,5.26-29.6,4.28-7.71-.98-15-3.81-20.27-9.71-7.24-7.77-9.73-18.86-9.15-29.22.48-13.1,5.76-26.83,15.61-35.75,7.14-7.42,17.54-11.57,27.71-12.21h0Z"/>
  <path class="cls-1" d="M620.04,91.03c6.76-.24,14.07.61,19.52,4.99-1.5,6.33-1.83,13.1-4.04,19.21-2.46-1.6-4.76-3.19-7.59-4.1-6.72-2.26-15.25-.49-20.53,4.25-8.32,8.02-11.82,20.06-10.1,31.38,1.01,4.26,3.74,9.35,8.04,11.01,3.61,1.66,7.71,1.56,11.58,1.15,5.77-.97,9.17-4.52,14.15-7.09.08,4.65-1.07,8.98-1.68,13.55-.39,2.21-.45,4.69-1.34,6.76-.66,1.18-2.26,1.85-3.41,2.45-9.35,4.38-20.4,4.99-30.28,2.13-8.05-2.37-14.87-8.05-18.09-15.87-3.89-8.62-3.75-17.42-2.99-26.65,1.48-10.13,5.61-19.88,12.13-27.81,8.58-9.85,21.5-15.87,34.63-15.36h0Z"/>
  <path class="cls-1" d="M677.37,91.38c10.68-.99,20.9-.64,30.36,4.99,8.65,5.08,12.75,14.18,14.09,23.81,1.57,16.22-3.19,34.8-15.52,46.1-7.55,7.54-18.68,11.63-29.24,12.01-8.71.37-17.03-.17-24.82-4.45-4.06-2.17-7.54-5.08-9.94-9.06-5.41-8.44-7.29-19.24-5.68-29.09,1.43-11.99,6.78-24.1,15.7-32.39,6.83-6.62,15.72-10.47,25.05-11.92h0Z"/>
  <path class="cls-1" d="M775.04,91.04c5.79-.28,11.28-.57,16.42,2.57,3.95,2.32,6.12,5.94,8.02,9.97,3.37-4.14,7.2-7.74,12.12-9.98,5.25-2.56,10.77-2.84,16.5-2.6,5.55,0,10.98,2.1,14.74,6.25,3.95,3.8,5.2,8.68,6.03,13.92.62,4.77-.48,8.94-1.08,13.63-2.58,16.71-5.36,33.41-8.07,50.11-7.9.43-15.86.21-23.76,0,1.89-12.9,4.33-25.74,6.38-38.63.87-5.59,2.3-11.67,2.02-17.31-.17-3.05-1.26-6.6-4.26-7.98-5.6-2.62-12.85-.22-16.42,4.67-2.91,3.65-3.37,9.37-4.12,13.84-1.96,13.87-4.64,27.61-6.66,41.47-.22,1.37-.55,2.72-.88,4.06-7.68.05-15.38.21-23.05-.1,2.61-16.35,5.15-32.73,7.91-49.05.3-3.74.96-8.47-.76-11.92-1.45-3.03-4.95-4.07-8.07-4.04-4.06-.18-8.08,1.27-10.82,4.3-2.53,2.83-3.49,6.22-4.13,9.88-2.86,16.93-5.37,33.92-8.31,50.83-7.82.28-15.72.31-23.55.09,3.57-22.02,7.55-43.95,10.87-66,.91-5.52,1.5-10.82,2.92-16.21,7.63.03,15.31-.2,22.93.24-.41,2.73-.87,5.45-1.1,8.2,4.69-5.53,10.87-9.45,18.18-10.21h0Z"/>
  <path class="cls-1" d="M147.46,93.23c8.03-.71,16.29-.31,24.37-.29-5.14,27.24-9.21,54.7-14.01,81.99-7.94.24-15.94.4-23.87,0,4.25-27.21,8.87-54.53,13.51-81.7h0Z"/>
  <path class="cls-1" d="M465.9,93.02c8.94-.25,18.01-.24,26.95-.02,4.25,7.71,7.29,16.07,11.14,23.98,6.1-8.22,12.64-16.08,19.28-23.87,8.34-.28,16.79-.48,25.12,0-2.68,4.19-6.33,6.99-9.52,10.76-7.93,9.27-16.31,18.1-24.28,27.32,8.47,14.78,18.19,28.9,26.6,43.7-9.32.44-18.73.19-28.06.14-5.41-9-9.79-18.62-14.9-27.79-7.21,9.18-14.29,18.46-21.49,27.65-9.34.4-18.96.37-28.31.06,1.55-4.28,5.31-6.56,8.3-10.25,9.6-11.29,19.48-22.36,28.86-33.82-6.41-12.56-14.18-24.86-19.69-37.86h0Z"/>
  <path class="cls-2" d="M280.16,108.12c3.72-.35,8.04-.66,11.25,1.57,4.71,3.06,6.37,9.62,5.41,14.9-10.71.24-21.39-.11-32.09.41,1.68-7.47,7.55-15.4,15.43-16.88h0Z"/>
  <path class="cls-2" d="M85.5,110.47c6.49-1.35,13.62,1.53,16.25,7.87,1.9,5.05,2.81,10.77,1.77,16.12-1.02,6.8-3.03,13.99-8.09,18.95-3.25,3.47-7.5,5.83-12.36,5.75-3.8.12-7.38-.16-10.34-2.79-4.37-3.92-5.79-9.63-5.78-15.31-.28-7.17,1.96-14.5,5.39-20.75,2.64-4.98,7.57-8.86,13.16-9.84h0Z"/>
  <path class="cls-2" d="M367.5,110.44c5.42-1.3,12.43.86,15.08,6.08,3.12,5.6,2.89,12.87,2.14,19.05-1.03,7.41-4.33,14.19-9.97,19.17-5.52,4.45-13.45,6.03-19.83,2.47-4.79-3.1-7.16-9.62-7.09-15.13-.58-8.52,2.14-17.23,7.24-24.04,2.99-4.06,7.51-6.67,12.43-7.6h0Z"/>
  <path class="cls-2" d="M680.46,110.41c4.15-.87,9.07.12,12.39,2.82,2.93,2.7,4.44,7.1,5.08,10.94,1.09,10-1.34,20.95-8.09,28.64-4.99,5.7-13.64,7.99-20.71,5.15-4.82-2.36-7.69-7.71-8.24-12.91-1.18-9.75,1.51-19.86,7.56-27.62,2.98-3.78,7.26-6.25,12.01-7.02h0Z"/>
  <path class="cls-1" d="M550.52,149.55c5.13-1.5,12.4-1.6,16.29,2.72,2.79,2.61,3.47,6.07,3.26,9.76.25,6.11-4.31,11.44-10.09,12.9-2.46.58-5.11.87-7.62.53-5.76-.43-10.59-5.96-11.03-11.57-.5-6.17,3.57-12.06,9.19-14.34h0Z"/>
</svg>